<svg xmlns="http://www.w3.org/2000/svg" width="434" height="392"><path fill="#357c88" d="M233.425-.07q4.38-.08 8.763-.118l2.602-.039C248.719-.233 250.656-.23 254 2c-.522 5.01-2.097 8.332-4.687 12.625a970 970 0 0 0-2.18 3.7l-1.093 1.86c-3.204 5.592-6.066 11.402-8.477 17.377-1.371 3.016-2.842 5.397-4.688 8.125-3.932 5.994-6.726 12.371-9.502 18.968-2.202 5.127-4.758 9.6-7.934 14.184-2.17 3.26-3.87 6.7-5.564 10.223l-1.945 3.973-.963 1.98c-2.907 5.972-5.956 11.796-9.28 17.547-3.714 6.497-6.96 13.095-9.984 19.938a66 66 0 0 1-4.09 7.273c-3.03 4.734-5.332 9.752-7.675 14.852-4.68 10.175-4.68 10.175-7.184 13.711-1.804 2.74-2.637 4.394-2.754 7.664 1.039 2.254 1.039 2.254 2.625 4.562 2.282 3.553 4.093 6.941 5.625 10.875 2.272 5.702 5.009 11.081 7.875 16.5l1.31 2.477c1.629 3.054 3.256 6.081 5.065 9.034 1.462 2.487 2.652 4.964 3.805 7.606l1.269 2.864q1.295 2.943 2.579 5.89c1.89 4.252 3.725 8.256 6.503 12.004 2.256 3.068 3.612 5.776 4.969 9.313 1.507 3.893 3.216 7.308 5.375 10.875a67 67 0 0 1 1.375 3.875c1.019 2.848 2.16 5.04 4 7.437 2.824 3.715 4.575 7.724 6.438 11.985 1.918 4.367 4.097 8.597 6.289 12.832l1.086 2.121.98 1.89c.865 1.932 1.38 3.796 1.832 5.86h2l.699 1.836c2.434 6.253 5.242 12.197 8.3 18.164q1.378 2.781 2.75 5.562c2.519 5.05 5.154 10.026 7.814 15 8.996 16.876 8.996 16.876 10.437 23.438h2a417 417 0 0 1 2.063 4.812l1.16 2.707C273 388 273 388 272 391c-2.95.983-4.883 1.132-7.96 1.145l-3.053.02-3.295.003-3.39.01q-3.548.007-7.098.007c-3.623.002-7.246.02-10.87.04l-6.892.005-3.29.022-3.064-.009-2.691.004c-2.594-.268-4.195-.87-6.397-2.247-1.217-1.844-1.217-1.844-2.22-4.07-.186-.408-.186-.408-1.135-2.469l-1.145-2.586-2.281-5.008-1.11-2.466c-1.075-2.329-2.218-4.61-3.39-6.893-1.72-3.508-1.72-3.508-1.72-5.508h-2c-2.012-3.887-3.895-7.658-5.374-11.778-1.588-4.302-3.623-8.26-5.812-12.285-.395-.735-.79-1.47-1.195-2.228A2403 2403 0 0 0 183 328a855 855 0 0 1-21.695-43.106c-2.815-5.97-5.858-11.77-9.09-17.523-1.215-2.37-1.215-2.37-1.215-4.37l-3-1-.343-2.16c-.704-3.046-1.78-5.489-3.161-8.29l-1.494-3.069-1.564-3.17a2014 2014 0 0 1-3.067-6.26l-1.377-2.793C136 234 136 234 136 232c-3.19 2.682-4.773 6.137-6.562 9.812l-.92 1.83c-2.944 5.958-4.783 10.951-4.678 17.635l.035 3.703.063 3.957c.026 2.772.04 5.545.054 8.317l.012 2.156c.026 7.994-.186 15.976-.441 23.965l-.06 2.07q-.087 2.882-.186 5.766l-.111 3.322C123 317 123 317 122 318c-2.582.101-5.136.14-7.72.133l-2.341.003q-2.457 0-4.913-.006-3.773-.005-7.545.007-2.382 0-4.762-.004l-2.295.006c-5.31-.024-5.31-.024-6.424-1.139a170 170 0 0 1-.556-7.507l-.128-2.319c-.41-8.022-.442-16.03-.413-24.06q.001-2.413.004-4.826.005-5.137.018-10.276c.014-5.428.019-10.855.024-16.283.01-11.514.03-23.028.05-34.542.023-12.453.044-24.906.055-37.359q.007-8.078.028-16.155.01-5.036.013-10.07.003-2.317.01-4.635c.028-7.89-.108-15.698-.905-23.557-.251-3.029-.064-5.898.3-8.91.604-5.105.604-5.105.004-7.396-.755-3.156-.324-6.064-.066-9.293.643-8.844.624-17.656.525-26.52l-.025-3.128-.035-2.798C85 65 85 65 86 62h37c4.204 8.407 2.156 21.47 2.125 30.812l-.002 2.316c-.016 11.447-.282 22.858-.904 34.29-.611 11.797-.611 11.797.78 14.582l1-2h2l1.126-3.813c1.56-4.675 3.724-8.764 6.14-13.047 1.992-3.605 3.842-7.265 5.673-10.953.34-.686.682-1.372 1.034-2.079a5323 5323 0 0 0 4.743-9.577c3.8-7.656 7.738-15.229 11.734-22.784a557 557 0 0 0 7.14-13.958c2.52-4.982 5.146-9.908 7.759-14.84A620 620 0 0 0 181 36c2.97-6.004 6.107-11.916 9.24-17.836 2.037-3.857 4.04-7.72 5.952-11.64C198 3 198 3 200 1c2.648-.319 2.648-.319 6.02-.414l3.76-.118q2.016-.048 4.033-.093l4.085-.11c5.175-.136 10.35-.229 15.527-.336"/><path fill="#7fd5e2" d="M89.938 4.813c1.147 0 2.296 0 3.478.002 8.444.044 8.444.044 9.584 1.185.243 4.381.228 8.769.24 13.156.01 2.204.04 4.407.073 6.61q.01 2.098.016 4.195l.028 3.868c-.358 3.17-.358 3.17-1.642 5.085-3 1.9-6.513 1.544-9.966 1.587-7.326.089-12.635.95-18.5 5.75-5.623 6.874-6.406 14.17-6.346 22.727l.003 2.392q.006 2.567.018 5.134.019 4.092.024 8.183c.015 6.788.039 13.573.063 20.36q.03 8.581.044 17.162.012 3.98.032 7.96c.026 8.365-.084 16.712-.474 25.069l-.096 2.303c-.73 13.655-4.47 26.133-14.653 35.405-.74.697-1.477 1.397-2.238 2.117-.71.65-1.418 1.302-2.15 1.973C46 199 46 199 46.127 201.086c1.34 2.932 3.532 4.74 5.874 6.914 1.813 1.688 1.813 1.688 3 3v2h2c12.495 20.843 10.075 46.553 9.945 69.93l-.014 3.435c-.025 5.715-.069 11.428-.142 17.142q-.025 3.208-.046 6.414c-.02.97-.038 1.939-.057 2.937-.029 7.522 1.192 14.324 4.876 20.954 7.02 6.3 14.063 7.76 23.337 8.048 2.578.116 4.69.248 7.1 1.14 2.11 4.216 1.187 9.738 1.187 14.377.001 2.05.02 4.099.038 6.149l.007 3.907.012 3.596C103 374 103 374 101 377c-1.933.389-1.933.389-4.296.399-.87.005-1.74.012-2.636.019l-2.818-.043-2.876-.03c-19.08-.418-32.16-6.673-45.377-20.43-9.934-11.543-12.172-27.66-12.63-42.38l-.116-3.27c-.426-13.401-.264-26.81-.08-40.214.452-35.086.452-35.086-7.378-44.472-4.685-4.126-9.154-6.24-15.167-7.829l-3.774-1.016L.999 217c-1.104-6.257-1.182-12.405-1.186-18.75l-.038-3.153-.006-3.019-.012-2.738C0 187 0 187 2 184c2.645-.879 2.645-.879 5.813-1.562 3.901-.858 7.564-1.73 11.187-3.437 1.064-1.876 1.064-1.876 2-4a182 182 0 0 1 4-4c7.06-10.589 5.136-26.864 5.046-39.073q-.027-3.734-.037-7.468-.036-10.605-.104-21.21C29.508 38.906 29.508 38.906 46 22c.752-.79 1.505-1.58 2.279-2.395C60.14 8.012 73.868 4.637 89.938 4.813"/><path fill="#7fd4e2" d="M333 5c16.94-.468 35.416-.517 49.562 10.438A74 74 0 0 1 386 19l1.278 1.395c11.942 13.299 15.753 26.969 16.038 44.746l.063 3.331q.098 5.389.183 10.778l.134 7.449c.197 11.597.341 23.19.296 34.789l-.01 2.893a1539 1539 0 0 1-.107 13.243c-.265 27.832-.265 27.832 7.313 35.626L413 175v2l1.688.812C417 179 417 179 419.188 180.5c3.222 1.719 6.154 2.333 9.726 2.973C431 184 431 184 434 186c.388 2.949.388 2.949.398 6.688l.009 1.994q.003 2.088-.016 4.176c-.016 2.134 0 4.266.019 6.4q-.003 2.027-.012 4.054l-.01 3.739L434 216c-3.124 2.083-5.057 2.525-8.688 3.25-7.149 1.72-11.885 4.523-16.312 10.409-5.993 10.009-5.433 23.685-5.411 35.05.005 2.501-.009 5-.028 7.501-.043 6.201-.054 12.402-.066 18.603q-.017 7.906-.075 15.812c-.013 2.435-.009 4.871-.005 7.307-.066 18.787-3.59 35.055-17.138 48.818-12.434 11.288-25.806 14.443-42.152 14.312l-3.242-.013A2302 2302 0 0 1 333 377c-2.612-5.926-2.26-11.781-2.188-18.125l.002-3.285c.049-8.733.049-8.733 1.186-12.59l3.473-.332 4.589-.48 2.28-.213c7.77-.841 14.977-3.42 20.658-8.975 5.196-7.931 4.532-17.233 4.455-26.31a689 689 0 0 1-.007-8.257c.021-6.838.004-13.676-.022-20.514-.021-5.786-.023-11.57.003-17.355.004-2.683-.02-5.365-.045-8.048-.013-14.759 2.562-29.153 11.991-41.078l1.836-2.329a51 51 0 0 1 4.789-4.921l2-2.188c-.275-3.715-2.097-5.364-4.75-7.812-10.352-10.056-15.122-22.763-15.502-37.227a507 507 0 0 1-.003-5.377l-.011-2.995q-.01-3.192-.008-6.385c.001-3.377-.012-6.754-.029-10.131q-.068-14.393-.078-28.786-.01-8.829-.065-17.658a996 996 0 0 1-.007-6.696c.057-25.181.057-25.181-5.888-32.608-5.348-5.043-12.403-5.557-19.409-5.887-6.956-.34-6.956-.34-10.25-1.438-2.064-5.156-1.185-11.552-1.188-17l-.037-3.602-.005-3.46-.013-3.161C331 9.001 331.571 7.362 333 5"/><path fill="#79cfdf" d="M287 88h2c1.704 3.407 1.175 7.302 1.193 11.052l.025 2.844q.036 4.671.055 9.342l.017 3.219q.039 8.431.06 16.862c.017 5.811.062 11.622.112 17.432.034 4.464.046 8.927.051 13.391q.01 3.213.046 6.426c.032 2.998.032 5.994.024 8.992l.05 2.684c-.045 4.412-.15 6.164-3.029 9.69L285 192c-2.959 3.288-4.673 5.537-5 10 .438 3.313.438 3.313 1 6h2l1.5 2.438c3.241 3.322 5.496 3.525 10.023 3.765 3.738-.306 5.762-1.692 8.477-4.203 1.782-2.91 2.273-5.103 2.25-8.5l.016-2.281c-.302-2.52-.916-4.075-2.266-6.219l-3.062-2.375c-3.526-3.151-3.501-4.04-3.938-8.625-.126-3.033-.137-6.06-.129-9.095l-.006-2.712q-.004-4.416.002-8.834l-.003-6.148q-.002-6.43.006-12.86.006-8.256-.004-16.512-.005-6.341 0-12.682.001-3.045-.002-6.091-.003-4.244.007-8.489l-.007-2.556c.022-5.792.022-5.792 1.136-8.021 1.87.297 1.87.297 4 1a76 76 0 0 1 4.25 7.562l1.186 2.325A907 907 0 0 1 310 106q1.005 1.993 2.012 3.984c2.014 3.997 4.002 8.006 5.988 12.016 7.19 14.508 14.552 28.91 22.242 43.16A723 723 0 0 1 353 190.062l1.459 2.921c2.616 5.415 4.66 9.948 4.541 16.017-1.044 2.761-2.526 5.07-4.188 7.5a2032 2032 0 0 0-2.527 3.949l-1.218 1.873c-1.6 2.517-2.91 5.131-4.184 7.823a104 104 0 0 1-2.016 3.992c-5.494 10.453-10.145 21.478-11.25 33.312-.839 3.468-2.051 5.062-4.617 7.551-2.798.465-4.974.61-7.762.523l-2.338-.013c-2.53-.02-5.058-.077-7.588-.135q-2.619-.033-5.238-.061c-5.359-.066-10.716-.184-16.074-.314l-2.564-.06A2146 2146 0 0 1 257 274c-2.067-3.917-3.395-6.522-3-11l-2-1c-.422-1.863-.422-1.863-.75-4.312-.985-5.488-3.164-9.817-5.766-14.711-1.336-2.681-2.242-5.183-3.109-8.039-2.226-6.65-6.293-12.261-10.311-17.95-3.622-5.365-5.171-9.492-4.064-15.988 1.342-3.355 2.458-5.458 5-8 .781-1.805.781-1.805 1.5-3.875 1.009-2.816 2.072-5.488 3.5-8.125h2l.34-1.637c2.409-8.626 7.342-16.711 11.618-24.546 2.851-5.296 5.295-10.725 7.608-16.275 1.851-4.399 4.031-8.417 6.434-12.542q1.651-3.206 3.25-6.438l1.578-3.183L272 114h2l.262-2c.978-3.975 2.702-7.363 4.55-11l1.042-2.117c2.008-3.994 4.072-7.584 7.146-10.883"/><path fill="#1c5e6b" d="M287 90h1c.139 12.708.246 25.417.311 38.126.031 5.901.074 11.801.142 17.702q.096 8.539.116 17.079a675 675 0 0 0 .065 6.521c.044 3.041.05 6.08.047 9.122l.066 2.733c-.024 2.389-.095 4.419-.747 6.717-2.921 2.423-2.921 2.423-6 4-3.12 4.327-3.382 7.718-2.566 12.82.89 3.426 2.196 5.561 4.566 8.18l3.496 1.172C291 216 291 216 292.559 219.492q.495 2.18.879 4.383l.464 2.388c2.404 13.711 3.301 29.875-2.902 42.737-3.197 1.066-5.957 1.354-9.312 1.625l-3.364.289c-3.264.084-6.117-.37-9.324-.914a90 90 0 0 0-5 2c-2.813.125-2.813.125-5 0l1-3a95 95 0 0 0-3.536-3.385c-1.636-1.804-2.187-3.142-2.894-5.459l-.714-2.263-.731-2.393c-2.031-6.4-4.278-12.49-7.242-18.531C244 235 244 235 244 233h-2l-.812-2.168c-2.853-7.254-6.296-13.48-10.614-19.922-1.771-3.275-2.045-4.266-1.574-7.91 1.225-2.923 2.763-5.656 4.305-8.422q1.389-2.563 2.772-5.131l1.462-2.705c2.409-4.522 4.69-9.106 6.969-13.695l1.396-2.803q2.113-4.246 4.221-8.494c5.612-11.305 11.245-22.582 17.235-33.692 1.915-3.57 3.73-7.172 5.515-10.808 4.536-9.174 9.327-18.211 14.125-27.25"/><path fill="#5eb2b9" d="m250.922 60.672 2.859.016 2.969.062 2.922.016c5.522.06 10.865.432 16.328 1.234 1 3 1 3-.441 6.442a308 308 0 0 1-2.121 4.12l-1.123 2.194c-2.404 4.645-5 9.124-7.756 13.568-2.384 4.092-4.437 8.339-6.53 12.585-3.186 6.45-6.595 12.769-10.03 19.09a2021 2021 0 0 0-4.811 8.939l-1.168 2.152c-1.622 3.036-3.004 5.86-4.086 9.14-.982 2.912-2.184 4.73-4.06 7.145-5.621 7.75-9.786 16.547-13.444 25.379-1.185 2.689-2.304 4.682-4.055 6.996-3.868 5.532-6.462 11.686-9.127 17.862l-1.1 2.45-.963 2.223C204 204 204 204 201.865 204.745L200 205c-4.162-6.113-7.245-12.566-10.32-19.271-2.592-5.641-2.592-5.641-3.68-6.73-.968-6.924.776-11.617 4.25-17.5q1.256-2.235 2.504-4.475l1.2-2.123c1.215-2.207 2.257-4.454 3.234-6.776 2.947-6.921 6.74-13.42 10.687-19.812 2.97-4.89 5.498-9.951 8.023-15.077A421 421 0 0 1 223 99.5c2.796-5.18 5.462-10.408 8.063-15.687 11.52-23.233 11.52-23.233 19.859-23.141"/><path fill="#30727d" d="m303.063 280.938 7.86.014q9.54.015 19.077.048c1.654 7.72 2.464 15.108 2.75 23l.168 3.425.128 3.262.12 2.95C333 316 333 316 331 318c-2.551.286-2.551.286-5.82.334l-3.704.07-4.03.046q-2.073.031-4.144.065-4.355.068-8.71.119c-3.69.042-7.378.099-11.067.16q-4.29.07-8.576.127-3.018.043-6.036.091c-21.052.23-21.052.23-25.913-3.012l.5-2.75c.68-4.587.53-9.149.438-13.774C254 297 254 297 255 296a215 215 0 0 0 1.061-7.062L257 282c15.348-1.233 30.676-1.115 46.063-1.062"/><path fill="#e3fcfb" d="M89.938 4.813c1.147 0 2.296 0 3.478.002 8.444.044 8.444.044 9.584 1.185.243 4.381.228 8.769.24 13.156.01 2.204.04 4.407.073 6.61q.01 2.098.016 4.195l.028 3.868c-.358 3.17-.358 3.17-1.642 5.085-3 1.9-6.513 1.544-9.966 1.587-7.326.089-12.635.95-18.5 5.75-5.623 6.874-6.406 14.17-6.346 22.727l.003 2.392q.006 2.567.018 5.134.019 4.092.024 8.183c.015 6.788.039 13.573.063 20.36q.03 8.581.044 17.162.012 3.98.032 7.96c.026 8.365-.084 16.712-.474 25.069l-.096 2.303c-.73 13.655-4.47 26.133-14.653 35.405-.74.697-1.477 1.397-2.238 2.117-.71.65-1.418 1.302-2.15 1.973C46 199 46 199 46.127 201.086c1.34 2.932 3.532 4.74 5.874 6.914 1.813 1.688 1.813 1.688 3 3v2h2c12.495 20.843 10.075 46.553 9.945 69.93l-.014 3.435c-.025 5.715-.069 11.428-.142 17.142q-.025 3.208-.046 6.414c-.02.97-.038 1.939-.057 2.937-.029 7.522 1.192 14.324 4.876 20.954 7.02 6.3 14.063 7.76 23.337 8.048 2.578.116 4.69.248 7.1 1.14 2.11 4.216 1.187 9.738 1.187 14.377.001 2.05.02 4.099.038 6.149l.007 3.907.012 3.596C103 374 103 374 101 377c-1.933.389-1.933.389-4.296.399-.87.005-1.74.012-2.636.019l-2.818-.043-2.876-.03c-19.08-.418-32.16-6.673-45.377-20.43-9.934-11.543-12.172-27.66-12.63-42.38l-.116-3.27c-.426-13.401-.264-26.81-.08-40.214.452-35.086.452-35.086-7.378-44.472-4.685-4.126-9.154-6.24-15.167-7.829l-3.774-1.016L.999 217c-1.104-6.257-1.182-12.405-1.186-18.75l-.038-3.153-.006-3.019-.012-2.738C0 187 0 187 2 184c2.645-.879 2.645-.879 5.813-1.562 3.901-.858 7.564-1.73 11.187-3.437 1.064-1.876 1.064-1.876 2-4a182 182 0 0 1 4-4c7.06-10.589 5.136-26.864 5.046-39.073q-.027-3.734-.037-7.468-.036-10.605-.104-21.21C29.508 38.906 29.508 38.906 46 22c.752-.79 1.505-1.58 2.279-2.395C60.14 8.012 73.868 4.637 89.938 4.813m-44.79 20.195c-8.437 10.689-12.623 22.976-12.533 36.5-.006.997-.01 1.995-.017 3.024q-.012 3.225-.008 6.45c.003 3.41-.01 6.82-.03 10.231-.035 7.242-.05 14.483-.06 21.725-.013 8.394-.033 16.787-.08 25.18-.014 3.346-.01 6.69-.005 10.036q-.014 3.105-.03 6.21l.019 2.779c-.093 9.855-2.783 18.23-7.405 26.857-.328.99-.658 1.98-1 3-1.623.938-1.623.938-4 2l-3.061 1.938C12.999 183 12.999 183 1.999 186v30c2.332.555 4.663 1.112 7.063 1.686 7.993 2.081 13.234 4.19 17.688 11.313 5.309 10.935 5.682 22.297 5.66 34.193-.003 2.656.01 5.31.03 7.966.041 6.588.053 13.175.066 19.762q.015 8.384.075 16.767c.012 2.596.008 5.19.003 7.784.06 17.906 3.94 32.813 16.72 46.052C64.959 375.906 80.803 375.433 101 375v-31l-7.373-.25c-8.156-.43-14.683-1.945-21.439-6.75-7.817-10.72-7.886-21.404-7.788-34.09q-.01-2.752-.025-5.505c-.022-4.803-.018-9.606-.006-14.41.019-7.683.008-15.363-.025-23.046-.007-2.659.007-5.318.021-7.977.012-17.524-2.92-31.493-14.986-44.746C46.734 204.75 44.063 202.93 41 201l2.415-2.09c11.52-10.132 19.167-20.774 20.87-36.54.441-7.106.361-14.215.317-21.33q.01-3.427.025-6.855c.022-5.97.018-11.94.006-17.912-.019-9.572-.008-19.147.025-28.72.007-3.325-.007-6.65-.021-9.974q.004-3.075.01-6.15c-.008-.913-.017-1.823-.028-2.763.054-8.587 1.752-16.942 7.382-23.665 4.567-3.846 8.388-6.032 14.45-6.317.382-.02.382-.02 2.314-.115l2.924-.132 9.311-.436V6c-22.104-.482-40.042 1.864-55.85 19.007"/><path fill="#d9f8f9" d="M333 5c16.94-.468 35.416-.517 49.562 10.438A74 74 0 0 1 386 19l1.278 1.395c11.942 13.299 15.753 26.969 16.038 44.746l.063 3.331q.098 5.389.183 10.778l.134 7.449c.197 11.597.341 23.19.296 34.789l-.01 2.893a1539 1539 0 0 1-.107 13.243c-.265 27.832-.265 27.832 7.313 35.626L413 175v2l1.688.812C417 179 417 179 419.188 180.5c3.222 1.719 6.154 2.333 9.726 2.973C431 184 431 184 434 186c.388 2.949.388 2.949.398 6.688l.009 1.994q.003 2.088-.016 4.176c-.016 2.134 0 4.266.019 6.4q-.003 2.027-.012 4.054l-.01 3.739L434 216c-3.124 2.083-5.057 2.525-8.688 3.25-7.149 1.72-11.885 4.523-16.312 10.409-5.993 10.009-5.433 23.685-5.411 35.05.005 2.501-.009 5-.028 7.501-.043 6.201-.054 12.402-.066 18.603q-.017 7.906-.075 15.812c-.013 2.435-.009 4.871-.005 7.307-.066 18.787-3.59 35.055-17.138 48.818-12.434 11.288-25.806 14.443-42.152 14.312l-3.242-.013A2302 2302 0 0 1 333 377c-2.612-5.926-2.26-11.781-2.188-18.125l.002-3.285c.049-8.733.049-8.733 1.186-12.59l3.473-.332 4.589-.48 2.28-.213c7.77-.841 14.977-3.42 20.658-8.975 5.196-7.931 4.532-17.233 4.455-26.31a689 689 0 0 1-.007-8.257c.021-6.838.004-13.676-.022-20.514-.021-5.786-.023-11.57.003-17.355.004-2.683-.02-5.365-.045-8.048-.013-14.759 2.562-29.153 11.991-41.078l1.836-2.329a51 51 0 0 1 4.789-4.921l2-2.188c-.275-3.715-2.097-5.364-4.75-7.812-10.352-10.056-15.122-22.763-15.502-37.227a507 507 0 0 1-.003-5.377l-.011-2.995q-.01-3.192-.008-6.385c.001-3.377-.012-6.754-.029-10.131q-.068-14.393-.078-28.786-.01-8.829-.065-17.658a996 996 0 0 1-.007-6.696c.057-25.181.057-25.181-5.888-32.608-5.348-5.043-12.403-5.557-19.409-5.887-6.956-.34-6.956-.34-10.25-1.438-2.064-5.156-1.185-11.552-1.188-17l-.037-3.602-.005-3.46-.013-3.161C331 9.001 331.571 7.362 333 5m0 2v31c9.062.312 9.062.312 11.875.388 6.321.278 11.203 1.22 16.234 5.339l1.641 1.898 1.672 1.852c4.303 6.88 5.016 13.949 4.963 21.901l.016 3.02q.015 3.224.01 6.447c-.005 3.411.009 6.821.028 10.232.037 7.245.051 14.49.061 21.735.012 8.391.034 16.782.08 25.173.013 3.343.009 6.686.005 10.03.05 19.091 2.607 34.324 16.169 48.829 2.308 2.215 4.717 4.2 7.246 6.156l-2.16 1.582C378.99 211.689 372.069 223.115 370 238a238 238 0 0 0-.174 8.189l-.02 2.422a2237 2237 0 0 0-.036 5.181q-.026 4.106-.065 8.211-.105 11.669-.182 23.337-.049 7.149-.12 14.298a1408 1408 0 0 0-.037 5.434c-.012 2.537-.036 5.073-.063 7.609l-.002 2.247c-.103 7.412-1.942 14.969-6.301 21.072-6.591 5.577-13.96 7.259-22.375 7.625L333 344v31c20.606.441 37.065.693 52.75-14.312 10.81-11.44 15.403-24.157 15.392-39.874l.01-2.422q.012-2.593.017-5.185.012-4.122.041-8.242c.052-7.808.1-15.617.116-23.425.01-4.786.04-9.571.081-14.357q.019-2.718.015-5.435c-.011-12.418.045-25.752 8.578-35.748 7.026-6.942 11.923-7.985 22-10v-30l-13-4c-8.57-4.519-12.361-10.82-15.238-19.84-1.634-6.779-1.911-13.447-1.92-20.383l-.015-2.684q-.016-2.868-.026-5.734-.02-4.557-.053-9.112c-.062-8.632-.116-17.264-.149-25.896q-.033-7.941-.101-15.881-.021-3.006-.026-6.011C401.445 61.388 400.353 47.924 394 34l-.863-2.109c-4.976-11.31-15.472-17.674-26.512-22.203-4.994-1.928-9.101-2.813-14.484-2.786l-3.046.008-3.845.028z"/><path fill="#77cdd4" d="m303.063 280.938 7.86.014q9.54.015 19.077.048c1.654 7.72 2.464 15.108 2.75 23l.168 3.425.128 3.262.12 2.95C333 316 333 316 331 318c-2.551.286-2.551.286-5.82.334l-3.704.07-4.03.046q-2.073.031-4.144.065-4.355.068-8.71.119c-3.69.042-7.378.099-11.067.16q-4.29.07-8.576.127-3.018.043-6.036.091c-7.7.084-15.254-.209-22.913-1.012v-1l43-1c-1.111-16.666-1.111-16.666-4.062-25.195C294 288 294 288 293 283h-36v-1c15.347-1.233 30.676-1.115 46.062-1.062"/><path fill="#e0f9fa" d="M233.425-.07q4.38-.08 8.763-.118l2.602-.039C248.719-.233 250.656-.23 254 2c-.522 5.01-2.097 8.332-4.687 12.625a970 970 0 0 0-2.18 3.7l-1.093 1.86c-3.204 5.592-6.066 11.402-8.477 17.377-1.371 3.016-2.842 5.397-4.688 8.125-3.932 5.994-6.726 12.371-9.502 18.968-2.202 5.127-4.758 9.6-7.934 14.184-2.17 3.26-3.87 6.7-5.564 10.223l-1.945 3.973-.963 1.98c-2.907 5.972-5.956 11.796-9.28 17.547-3.714 6.497-6.96 13.095-9.984 19.938a66 66 0 0 1-4.09 7.273c-3.03 4.734-5.332 9.752-7.675 14.852-4.68 10.175-4.68 10.175-7.184 13.711-1.804 2.74-2.637 4.394-2.754 7.664 1.039 2.254 1.039 2.254 2.625 4.562 2.968 4.617 5.052 9.236 7.07 14.328 1.835 4.372 4.038 8.53 6.266 12.711l1.039 2.4-1 2c-2.898-5.46-5.773-10.93-8.635-16.409a640 640 0 0 0-3.845-7.17q-1.105-2.084-2.207-4.172l-1.063-1.908c-2.39-4.597-2.293-7.348-1.25-12.342 1.3-3.092 1.3-3.092 2.957-6.219l1.855-3.54 2-3.74q1.027-1.948 2.05-3.895 2.07-3.937 4.158-7.867c2.296-4.329 4.557-8.675 6.816-13.023 4.38-8.428 8.804-16.833 13.236-25.234A3392 3392 0 0 0 209 85.5c4.409-8.516 8.837-17.02 13.313-25.5 3.76-7.128 7.485-14.274 11.209-21.42a3953 3953 0 0 1 11.18-21.29l1.142-2.16.975-1.843c1.762-3.41 3.464-6.853 5.18-10.287h-52l-2 6a207 207 0 0 1-3.374 6.937l-1.044 2.066c-4.594 9.054-9.318 18.042-14.03 27.035a8598 8598 0 0 0-20.863 40.087l-.943 1.823q-4.92 9.511-9.827 19.03l-4.066 7.878-1.922 3.73c-3.214 6.242-6.442 12.454-9.98 18.52-.978 1.951-1.505 3.764-1.95 5.894h-2c1.802-6.108 4.14-11.322 7.266-16.86 1.99-3.605 3.84-7.265 5.672-10.953.34-.686.682-1.372 1.034-2.079a5323 5323 0 0 0 4.743-9.577c3.8-7.656 7.738-15.229 11.734-22.784a557 557 0 0 0 7.14-13.958c2.52-4.982 5.146-9.908 7.759-14.84A620 620 0 0 0 181 36c2.97-6.004 6.107-11.916 9.24-17.836 2.037-3.857 4.04-7.72 5.952-11.64C198 3 198 3 200 1c2.648-.319 2.648-.319 6.02-.414l3.76-.118q2.016-.048 4.033-.093l4.085-.11c5.175-.136 10.35-.229 15.527-.336"/><path fill="#7cb7cc" d="M355 202h2v2h2c.654 5.033-1.633 8.248-4.25 12.312q-1.253 2.014-2.5 4.032l-1.199 1.929c-1.553 2.552-2.891 5.174-4.168 7.872a104 104 0 0 1-2.016 3.992c-5.494 10.453-10.145 21.478-11.25 33.312-.839 3.468-2.051 5.062-4.617 7.551-2.798.465-4.974.61-7.762.523l-2.338-.013c-2.53-.02-5.058-.077-7.588-.135q-2.619-.033-5.238-.061c-5.359-.066-10.716-.184-16.074-.314l-2.564-.06A2146 2146 0 0 1 257 274c-2.067-3.917-3.395-6.522-3-11l-2-1c-.422-1.863-.422-1.863-.75-4.312-.981-5.568-3.288-9.943-5.918-14.903-1.623-3.394-2.163-6.057-2.332-9.785 3.132 3.648 4.726 7.718 6.5 12.125l.943 2.298c1.642 4.066 3.066 8.08 4.182 12.327 1.181 4.366 2.987 6.319 6.375 9.25v2l1.688-.438L265 270l2.438-.625c2.562-.375 2.562-.375 4.734.129 3.605.632 7.02.36 10.64.058l2.1-.158q2.545-.194 5.088-.404l2-6h2v5h34l1-7c.647-1.674 1.31-3.343 2-5v-3h2l.75-2.75q.618-2.127 1.25-4.25l.812-2.75c2.282-7.299 5.277-13.69 9.188-20.25l1.02-1.712c6.411-10.719 6.411-10.719 8.98-13.288.125-3.125.125-3.125 0-6"/><path fill="#93dadc" d="M200 3h52c-1.234 3.703-2.267 6.789-3.961 10.188l-1.16 2.332-1.254 2.48-1.324 2.637c-3.785 7.473-7.792 14.815-11.838 22.148A455 455 0 0 0 223 61c-3.494 7.101-7.177 14.071-11 21a585 585 0 0 0-12.33 23.628c-4.389 8.879-9.021 17.627-13.67 26.372h-1a99 99 0 0 1 0-5l1-1 .25-3.25c.906-4.532 2.55-5.55 5.75-8.75.668-1.98.668-1.98 1.125-4.125.861-3.812 1.087-4.533 3.875-6.875 1.969-2.954 3.352-5.499 4-9h2l1-4h2l.402-1.734c.592-2.243 1.331-4.352 2.16-6.516l.817-2.141L210 78h2l.723-2.473c1.532-4.231 3.558-8.024 5.715-11.965C221.22 58.456 223.794 53.384 226 48h2v-4h2v-4h2l2-8h2v-3h2l1-3.625C241.292 18.4 245.279 12.283 249 6l1-2-1.499.496c-3.504.706-6.963.606-10.521.566l-2.353-.011c-3.313-.016-6.625-.044-9.938-.072q-3.636-.026-7.271-.041l-2.239-.026c-11.965-.056-11.965-.056-14.999 2.803l-1.305 2.223-1.457 2.445c-6.088 11.236-6.088 11.236-6.934 14.773C191 29 191 29 189.062 31.188c-2.067 2.819-2.463 4.109-3.062 7.437-.785 4.189-.785 4.189-2.875 6L181 46c-2.717 4.198-4.496 8.249-6.141 12.945-1.258 3.01-3.027 5.612-4.871 8.293C169 69 169 69 169 72h-2l-.34 1.754c-.723 2.462-1.763 4.083-3.222 6.184-2.054 3.157-3.041 5.2-2.438 9.062h-2c-1.52 2.944-2.83 5.925-4.062 9l-1.036 2.562C153 103 153 103 152.566 105.25L152 107l-3 1c-3.943 5.408-4.539 9.4-4 16h-2l-1-2-1.375 2.312A153 153 0 0 1 137 130l-2-1c5.486-11.075 11.013-22.121 16.806-33.038 4.299-8.119 8.494-16.291 12.694-24.462 6.779-13.183 13.583-26.351 20.598-39.41 4.804-8.949 9.4-17.985 13.902-27.09z"/><path fill="#eafdfd" d="M86 62h37c4.204 8.407 2.156 21.471 2.125 30.812l-.003 2.317c-.015 11.446-.281 22.857-.903 34.289-.611 11.797-.611 11.797.781 14.582l1-2h2c-1.311 4.234-2.944 8.074-5 12h-1V63H87v254h-1a468 468 0 0 1-1.098-33.886l.005-4.826q.004-5.138.018-10.276c.014-5.428.019-10.855.024-16.283.011-11.514.031-23.028.051-34.541.022-12.454.043-24.907.053-37.36q.008-8.077.029-16.155.01-5.035.013-10.07.002-2.318.011-4.634c.027-7.892-.109-15.699-.906-23.558-.251-3.028-.064-5.898.3-8.911.604-5.104.604-5.104.004-7.395-.755-3.156-.325-6.064-.066-9.293.642-8.843.624-17.656.525-26.52l-.025-3.128-.036-2.798C85 65 85 65 86 62"/><path fill="#e4fbfb" d="m250.922 60.672 2.859.016 2.969.062 2.922.016c5.522.06 10.865.432 16.328 1.234 1 3 1 3-.441 6.442a308 308 0 0 1-2.121 4.12l-1.123 2.194c-2.404 4.645-5 9.124-7.756 13.568-2.384 4.092-4.437 8.339-6.53 12.585-3.186 6.45-6.595 12.769-10.03 19.09a2021 2021 0 0 0-4.811 8.939l-1.168 2.152c-1.622 3.036-3.004 5.86-4.086 9.14-.976 2.894-2.171 4.765-4.06 7.145l-1.632 2.086L231 151l-1-2c1.165-2.724 1.165-2.724 2.98-6.203l.982-1.895c1.067-2.055 2.146-4.103 3.226-6.152l2.228-4.272a1362 1362 0 0 1 14.119-26.29c3.818-6.95 7.534-13.95 11.198-20.982q.946-1.815 1.896-3.626 1.322-2.526 2.633-5.056l1.53-2.94c1.04-2.224 1.732-4.187 2.208-6.584-3.75.139-7.5.288-11.25.438l-3.223.119-3.105.127-2.856.11c-2.357.189-4.348.39-6.566 1.206-2.125 2.875-2.125 2.875-4 6l-2 3v3c-1.426 2.199-1.426 2.199-3.312 4.688C233.516 88.07 231.703 91.89 230 97c-2.451 5.755-2.451 5.755-4.922 6.859-2.797 1.536-3.474 3.192-4.89 6.032l-1.552 3.056L217 116.25q-1.741 3.435-3.488 6.867l-1.776 3.503c-2.552 4.968-5.23 9.863-7.923 14.755l-2.93 5.37a978 978 0 0 1-5.891 10.603l-2.804 5.09c-.44.763-.88 1.526-1.331 2.312-1.838 3.377-2.838 5.66-2.962 9.547 1.63 5.46 4.073 10.422 6.605 15.516l1.55 3.177q2.452 5.016 4.95 10.01l4-6 1 3c-1.437 2.688-1.437 2.688-3 5-2.442-.366-3.66-.567-5.217-2.547l-1.002-1.988-1.136-2.205-1.145-2.322-1.144-2.241q-1.141-2.238-2.246-4.494a84 84 0 0 0-2.282-4.23c-2.818-5.003-3.854-9.251-2.828-14.973 1.115-3.03 2.61-5.725 4.25-8.5q1.256-2.237 2.504-4.476l1.2-2.123c1.215-2.207 2.257-4.454 3.234-6.776 2.947-6.921 6.74-13.42 10.687-19.812 2.97-4.89 5.498-9.951 8.023-15.077A421 421 0 0 1 223 99.5c2.796-5.18 5.462-10.408 8.063-15.687 11.52-23.233 11.52-23.233 19.859-23.141"/><path fill="#a1e4e2" d="m91.938 5.938 9.061.062v32c-8.998.25-8.998.25-11.784.297-7.383.302-12.714 2.257-18.028 7.453-3.972 5.904-6.284 12.535-6.346 19.68l-.028 2.667-.019 2.904-.03 3.075q-.044 5.033-.08 10.065-.03 3.488-.064 6.977c-.055 6.123-.103 12.245-.153 18.368q-.076 9.37-.16 18.74-.161 18.388-.308 36.774h-1a1601 1601 0 0 1-1.13-62.972c.007-3.784.002-7.565-.002-11.349q-.006-4.461 0-8.922 0-2.096-.003-4.19c-.026-19.674-.026-19.674 3.074-27.067l1.026-2.532C67 46 67 46 69 45l1-3c.827-.163.827-.163 5-1v-2c6.876-4.123 16.504-3.423 24-4V8c-7 0-7 0-9 1V7c-.545.146-.545.146-3.311.877-3.4.86-6.79 1.493-10.25 2.061-4.59.812-8.26 2.015-12.439 4.063l-2.785 1.204c-3.937 2.2-6.715 4.892-9.838 8.108l-1.697 1.686C44.27 30.48 40.988 35.479 39 43c-.659.991-1.32 1.98-2 3a107 107 0 0 0-1.123 7.75l-.256 2.277c-.884 8.535-1.351 17.208-.045 25.717C35.999 85 35.999 85 34.999 88a103 103 0 0 0-.123 5.5l-.008 2.906C34.999 99 34.999 99 35.999 102a112 112 0 0 1-1 4c-.096 1.74-.145 3.48-.157 5.222l-.03 3.157-.023 3.403q-.042 3.59-.086 7.18c-.04 3.76-.078 7.522-.105 11.283-.027 3.637-.073 7.274-.121 10.912l-.01 3.353c-.283 18.234-.283 18.234-6.154 24.24L25.999 176l-2-1c.3-.39.3-.39 1.814-2.374 2.802-4.174 3.938-8.804 5.186-13.625l.532-1.876c.492-2.225.596-4.19.6-6.465l.013-2.612c-.002-.937-.002-1.875-.002-2.841l.01-3.013q.012-3.24.017-6.479.012-5.142.042-10.282c.052-9.746.1-19.492.114-29.237q.018-8.945.082-17.89.02-3.397.016-6.793c-.015-19.202 1.94-34.857 15.554-49.57C60.507 9.92 74.917 5.77 91.937 5.938"/><path fill="#7ebace" d="m408 224 3 1-1.75 1.812c-3.098 4.389-4.633 9.094-6.25 14.188l-.542 1.666c-.671 3.419-.611 6.823-.616 10.293l-.015 2.421q-.016 2.601-.026 5.202-.02 4.133-.053 8.266a6349 6349 0 0 0-.149 23.502q-.033 7.195-.101 14.389a901 901 0 0 0-.026 5.452c-.038 19.372-2.66 34.813-16.64 49.106-9.065 8.652-20.163 13.865-32.789 13.801l-3.038-.008-3.817-.028L333 375v-31l7.375-.25c8.742-.453 17.359-2.116 23.625-8.75 4.372-6.929 5.11-13.435 5.205-21.566l.03-2.219q.047-3.604.081-7.207l.063-5.019q.082-6.584.153-13.168.077-6.727.161-13.454.161-13.183.307-26.367h2c1.096 46.784 1.096 46.784 1.125 62.062l.014 2.905c-.021 9.357-1.196 19.69-7.83 26.861-7.007 6.527-14.449 9.27-24.059 9.11C338 347 338 347 336 349c-1.232 7.894-1.144 16.027-1 24 24.716.359 24.716.359 36-5l2-2 2.25-.812c9.397-4.058 15.985-13.976 19.75-23.188 3.753-10.841 4.282-21.917 4.16-33.285l-.016-4.05q-.021-5.292-.065-10.586-.072-9.432-.106-18.864l-.008-2.036c-.046-13.813.416-27.456 2.035-41.179l3-1a101 101 0 0 0 3-6z"/><path fill="#dcf3f4" d="M287 88h2c1.704 3.407 1.175 7.302 1.193 11.052l.025 2.844q.036 4.671.055 9.342l.017 3.219q.039 8.431.06 16.862c.017 5.811.062 11.622.112 17.432.034 4.464.046 8.927.051 13.391q.01 3.213.046 6.426c.032 2.998.032 5.994.024 8.992l.05 2.684c-.045 4.412-.15 6.164-3.029 9.69L285 192c-2.959 3.288-4.673 5.537-5 10 .438 3.313.438 3.313 1 6h2l1.5 2.438c3.241 3.322 5.496 3.525 10.023 3.765 3.738-.306 5.762-1.692 8.477-4.203 1.782-2.91 2.273-5.103 2.25-8.5l.016-2.281c-.611-5.104-3.643-7.787-7.266-11.219 4.427 1.353 6.363 3.233 9 7 1.601 3.202 1.357 6.518 1 10-1.954 5.347-4.912 8.456-10 11-4.868.534-8.866.504-13.375-1.5-4.096-3.901-6.147-7.953-7.187-13.5.8-4.268 2.629-7.784 5.562-11l5-2-1-97c-15 30-15 30-19.188 38.438-3.46 6.929-7.067 13.778-10.67 20.634-5.827 11.145-11.411 22.413-16.999 33.679l-1.141 2.295q-1.059 2.129-2.111 4.26c-1.607 3.23-3.276 6.374-5.123 9.475C230 203 230 203 229.812 206.25c1.462 4.614 3.786 8.148 6.461 12.156 1.873 2.813 3.446 5.471 4.727 8.594l-1 2a590 590 0 0 1-6-8.938l-1.734-2.517c-3.633-5.558-5.447-9.869-4.266-16.545 1.342-3.355 2.458-5.458 5-8 .781-1.805.781-1.805 1.5-3.875 1.009-2.816 2.072-5.488 3.5-8.125h2l.34-1.637c2.409-8.626 7.342-16.711 11.618-24.546 2.851-5.296 5.295-10.725 7.608-16.275 1.851-4.399 4.031-8.417 6.434-12.542q1.651-3.206 3.25-6.438l1.578-3.183L272 114h2l.262-2c.978-3.975 2.702-7.363 4.55-11l1.042-2.117c2.008-3.994 4.072-7.584 7.146-10.883"/><path fill="#d9f4f8" d="M64 235h1c1.259 5.695 1.37 11.311 1.562 17.125l.136 3.825c.286 9.011.314 18.012.259 27.027l-.017 3.426c-.03 5.701-.078 11.401-.153 17.101l-.045 6.418-.056 2.936c-.028 7.523 1.192 14.323 4.876 20.954 7.021 6.301 14.063 7.759 23.336 8.047 2.578.117 4.69.25 7.102 1.141 2.108 4.216 1.186 9.738 1.185 14.376.002 2.05.021 4.1.04 6.149l.005 3.909.013 3.595C103 374 103 374 101 377c-1.933.388-1.933.388-4.297.398l-2.635.019-2.818-.042-2.876-.031c-19.081-.417-32.161-6.672-45.378-20.43C37.705 350.766 35.17 343.744 33 336l-.54-1.909c-2.096-8.687-1.608-17.486-1.437-26.349q.04-2.636.076-5.271c.066-4.593.145-9.186.227-13.779.082-4.699.151-9.399.221-14.098q.21-13.797.453-27.594h1l.018 3.032q.086 14.21.218 28.421c.044 4.869.084 9.738.11 14.608q.041 7.06.117 14.122.025 2.681.035 5.362c.071 18.336 2.786 34.427 16.029 48.201C64.838 374.702 81.287 374.578 101 375v-31l-7.375.25c-8.357.109-14.286-1.703-21.5-5.938C69.051 334.967 67.622 331.2 66 327l-1.042-2.11c-1.269-3.827-1.221-7.459-1.185-11.444l-.001-2.574c.001-2.797.017-5.594.033-8.392l.008-5.83c.008-5.108.028-10.215.05-15.323.02-5.215.029-10.43.039-15.645Q63.936 250.34 64 235"/><path fill="#84c2d1" d="M59 223c6.076 6.076 5.323 18.334 5.366 26.448q-.002 2.558-.016 5.116c-.014 2.723-.008 5.444.004 8.167.031 7.729.027 15.459.006 23.189-.011 4.755.003 9.51.03 14.264a484 484 0 0 1-.012 5.388c-.09 11.785.595 21.533 7.81 31.428 9.077 6.455 18.01 6.634 28.812 7v31c-20.763.444-36.722.603-52.75-14.25-5.695-6.065-12.053-14.518-12.375-23.062L36 335h3l.586 2.484.789 3.266.773 3.234c.733 2.594 1.45 4.725 2.852 7.016l2 1 1.312 2.812c1.86 3.512 3.457 4.934 6.688 7.188l2.812 2c9.223 5.787 17.475 8.364 28.376 8.062q2.333-.051 4.667-.089l2.052-.055C94 372 94 372 99 373l1-27-7.438.25c-9.823.118-16.412-2.44-23.562-9.25-2.439-2.878-3.619-5.373-4.625-9l-.727-2.562L63 323l-.53-1.649c-.691-3.454-.632-6.897-.644-10.405l-.02-2.45q-.021-2.631-.036-5.261-.025-4.168-.065-8.337-.105-11.85-.182-23.701-.049-7.253-.12-14.505a1450 1450 0 0 1-.037-5.518c-.012-2.577-.036-5.154-.063-7.732l-.002-2.285c-.064-4.7-.884-8.636-2.301-13.157-.125-2.938-.125-2.938 0-5"/><path fill="#9ce1e0" d="M333 7c28.639-.609 28.639-.609 37 4l2 2c-3.187-.466-6.163-1.05-9.246-2-3.831-1.02-7.301-1.405-11.254-1.625l-3.781-.227A225 225 0 0 0 337 9c-1.937 3.239-2.194 5.46-1.977 9.203l.157 2.969.195 3.078.172 3.125q.212 3.813.453 7.625l3.727.367 4.898.508 2.449.238c4.561.482 8.611 1.225 12.926 2.887v2h2v2h2v2h2a966 966 0 0 1 2.438 4.75l1.371 2.672c2.264 4.901 2.393 9.543 2.507 14.883l.064 2.496q.098 4.038.182 8.074l.064 2.771c.276 12.18.474 24.358.499 36.542l.014 3.696-.006 3.409-.004 2.923C373 130 373 130 372.486 132.914c-.546 3.468-.518 6.664-.4 10.172l.064 2.002q.069 2.085.147 4.17c.078 2.104.145 4.208.211 6.312.217 6.525.507 12.971 1.492 19.43-4.444-6.666-4.293-14.646-4.271-22.426l-.016-3.034q-.015-3.238-.018-6.477-.008-5.133-.041-10.267c-.055-9.726-.086-19.452-.11-29.178a4638 4638 0 0 0-.085-17.888q-.018-3.397-.018-6.793c0-3.171-.018-6.341-.04-9.511l.014-2.806c-.085-7.655-1.377-15.139-6.665-20.995l-1.641-1.898c-5.85-4.789-11.773-5.219-19.047-5.415L333 38z"/><path fill="#e6fcfd" d="M400 45c3.966 5.949 3.205 13.21 3.316 20.141l.063 3.331q.098 5.389.183 10.778l.134 7.449c.197 11.597.341 23.19.296 34.789l-.01 2.893a1539 1539 0 0 1-.107 13.243c-.265 27.832-.265 27.832 7.313 35.626L413 175v2l1.688.812C417 179 417 179 419.188 180.5c3.222 1.719 6.154 2.333 9.726 2.973C431 184 431 184 434 186c.388 2.949.388 2.949.398 6.688l.009 1.994q.003 2.088-.016 4.176c-.016 2.134 0 4.266.019 6.4q-.003 2.027-.012 4.054l-.01 3.739L434 216c-3.124 2.083-5.057 2.525-8.688 3.25-7.15 1.721-11.887 4.523-16.312 10.411-6.45 10.768-5.466 25.776-5.512 37.964l-.054 5.178c-.047 4.484-.077 8.969-.104 13.453-.03 4.6-.076 9.199-.121 13.799Q403.083 313.527 403 327h-1a5843 5843 0 0 1-.259-32.965c-.026-5.104-.061-10.208-.118-15.311q-.08-7.4-.097-14.803-.014-2.81-.055-5.62c-.174-12.53-.034-24.47 8.841-34.363 6.871-5.967 12.283-6.997 21.688-7.938v-30l-8-1c-7.687-2.669-14.544-7.148-18.281-14.531-2.137-5.189-3.831-10.099-3.87-15.742l-.026-2.564-.012-2.79-.026-2.958q-.026-3.18-.045-6.361-.033-5.046-.077-10.092-.088-10.731-.163-21.462-.088-12.398-.192-24.795-.038-4.949-.068-9.897c-.146-19.359-.146-19.359-1.24-28.808"/><path fill="#e6fdfd" d="M297 88c1.87.297 1.87.297 4 1a76 76 0 0 1 4.25 7.562l1.186 2.325A907 907 0 0 1 310 106q1.005 1.993 2.012 3.984c2.014 3.997 4.002 8.006 5.988 12.016 7.19 14.508 14.552 28.91 22.242 43.16 4.475 8.317 8.745 16.725 12.883 25.215l1.51 3.048 1.373 2.85 1.239 2.545C358 201 358 201 357 204c-5.428-10.153-10.73-20.353-15.839-30.67a1381 1381 0 0 0-4.106-8.154l-1.532-3.035a1956 1956 0 0 0-3.019-5.956l-1.379-2.74-1.242-2.452C329 149 329 149 329 147h-2l-1.172-2.852-1.578-3.773-.766-1.871c-1.278-3.036-2.557-5.609-4.437-8.34-1.735-2.682-2.793-4.884-3.914-7.832-2.241-5.847-5.196-11.194-8.258-16.644a2314 2314 0 0 1-3.195-5.739l-1.415-2.521C301 95 301 95 299 90l-1 98h-1c-1.028-5.082-1.142-9.937-1.129-15.095l-.006-2.712q-.004-4.416.002-8.834l-.003-6.148q-.002-6.43.006-12.86.006-8.256-.004-16.512-.005-6.341 0-12.682.001-3.045-.002-6.091-.003-4.244.007-8.489l-.007-2.556c.022-5.792.022-5.792 1.136-8.021"/><path fill="#689fa5" d="M87 63h35l1 92h-2q-.428-15.021-.834-30.044-.188-6.975-.387-13.952-.193-6.74-.37-13.48-.069-2.564-.144-5.127-.105-3.607-.195-7.215l-.067-2.112c-.121-5.206.409-9.777.997-15.07l-31 1-1-5v90h-1z"/><path fill="#dbf4f5" d="m303.063 280.938 7.86.014q9.54.015 19.077.048c1.654 7.72 2.464 15.108 2.75 23l.168 3.425.128 3.262.12 2.95C333 316 333 316 331 318c-2.551.286-2.551.286-5.82.334l-3.704.07-4.03.046q-2.073.031-4.144.065-4.355.068-8.71.119c-3.69.042-7.378.099-11.067.16q-4.29.07-8.576.127-3.018.043-6.036.091c-7.7.084-15.254-.209-22.913-1.012v-1l2.108-.031q9.927-.15 19.853-.308 5.101-.083 10.202-.159 5.893-.089 11.782-.185l3.625-.052c8.202-.14 16.221-.678 24.43-1.265v-30h-7c-.164-.166-.164-.166-1-1a122 122 0 0 0-5.897-.205l-3.822-.06-4.16-.052q-2.116-.03-4.233-.062-5.58-.082-11.161-.154-5.69-.077-11.381-.16-11.173-.161-22.346-.308v-1c15.348-1.232 30.676-1.114 46.063-1.062"/><path fill="#0a404c" d="M88 178h1v34l2 1-1 1a269 269 0 0 0-.114 9.293v2.956c.001 3.241.009 6.483.016 9.724l.005 6.721q.006 8.866.024 17.731c.011 6.026.015 12.051.02 18.077Q89.969 296.251 90 314l30 1-.211-13.289q-.058-5.304-.1-10.606c-.031-3.712-.073-7.422-.142-11.132a756 756 0 0 1-.116-10.757 378 378 0 0 0-.111-6.025c-.003-10.058 2.107-19.246 8.365-27.382 1.878-2.583 1.527-4.706 1.315-7.809l5-1c-.594 3.634-1.59 6.547-3.25 9.828l-1.344 2.672-1.406 2.75-1.406 2.797c-3.44 6.799-3.44 6.799-4.594 7.953-.124 1.963-.178 3.93-.205 5.897l-.061 3.822-.05 4.16-.063 4.233q-.083 5.58-.153 11.161-.09 6.69-.191 13.381c-.098 6.782-.186 13.564-.277 20.346H88z"/><path fill="#4d898e" d="M287 90h1q.07 14.199.104 28.399.014 6.592.047 13.186.032 6.36.039 12.721.005 2.428.021 4.858c.015 2.265.017 4.529.016 6.794l.014 3.91C288 163 288 163 286 166V99c-3.527 3.527-3.709 5.983-4.188 10.688l-.248 2.126A504 504 0 0 0 281 117l-3-3c-4.53 6.284-5.15 10.346-5 18l-3-1c-4.683 4.23-4.606 8.606-4.922 14.551L265 148h-2l-1-2-4 2c1.482-5.006 3.638-9.321 6.125-13.875 3.027-5.625 5.984-11.272 8.813-17 4.517-9.13 9.286-18.128 14.062-27.125"/><path fill="#1b4e58" d="m136 228 2 1 1 3c2.062 1.188 2.062 1.188 4 2v2h2l-.25 3c0 4.464 1.477 8.491 4.25 12 2.141.727 2.141.727 4 1l.078 1.758c.404 5.558 1.224 9 4.922 13.242h3v4h-2q1.428 3.223 2.875 6.438l1.617 3.621C165 284 165 284 167 285v-2h2l.113 2.012c.694 9.322.694 9.322 3.887 12.988 2.105.621 2.105.621 4 1l.332 2.703.48 3.547.458 3.516c.726 3.218 1.547 4.817 3.73 7.234l3-1 1 13c-2.51-2.51-3.629-3.883-5.145-6.909l-1.211-2.396-1.299-2.617-1.391-2.765q-2.27-4.528-4.528-9.063l-3.149-6.288a8994 8994 0 0 1-6.584-13.185 7845 7845 0 0 0-8.464-16.918 7856 7856 0 0 1-6.493-12.986q-1.56-3.121-3.123-6.239a2617 2617 0 0 1-4.346-8.712l-1.318-2.617-1.185-2.396-1.038-2.08C136 231 136 231 136 228"/><path fill="#88a6ac" d="M214 379c1.5 1.125 1.5 1.125 3 3v6h48v-8h3v2h2c1.562 2.812 1.562 2.812 3 6l-1 3c-2.949.983-4.884 1.132-7.959 1.145l-3.054.02-3.296.003-3.388.01q-3.55.007-7.099.007c-3.624.002-7.247.021-10.87.04q-3.447.005-6.893.005l-3.289.022-3.064-.009-2.691.004c-2.604-.268-4.201-.838-6.397-2.247-1.841-3.406-2.219-6.161-2-10z"/><path fill="#d1f5f4" d="M333 5c16.94-.468 35.416-.517 49.562 10.438 3.364 3.197 6.271 6.835 9.188 10.437l1.432 1.748c11.092 14.175 9.104 34.447 9.013 51.502l-.008 6.254q-.014 8.147-.05 16.294c-.02 5.565-.029 11.13-.039 16.694Q402.064 134.684 402 151h-1l-.018-3.436q-.086-16.108-.218-32.216a5076 5076 0 0 1-.11-16.558q-.041-8.005-.117-16.009-.025-3.039-.035-6.078C400.451 61.558 399.396 47.989 393 34l-.898-2.145c-5.267-11.771-16.305-17.627-27.875-22.093-4.097-1.402-7.747-1.923-12.086-2.078l-3.379-.127-3.512-.119-3.559-.131Q337.346 7.148 333 7z"/><path fill="#90adb2" d="M125 246c1.276 3.828.261 5.232-1 9-.211 3.035-.211 3.035-.16 6.277l.035 3.703.063 3.958q.036 4.158.054 8.316l.011 2.157c.027 7.993-.185 15.976-.441 23.964l-.06 2.069c-.056 1.923-.121 3.845-.186 5.767l-.111 3.322C123 317 123 317 122 318c-2.593.089-5.161.115-7.754.098l-2.082-.003c-2.575-.006-5.151-.02-7.726-.033L87 318v-57h1v55h33l-.141-13.535q-.038-5.36-.066-10.723c-.021-3.766-.049-7.532-.095-11.297q-.063-5.446-.078-10.893a382 382 0 0 0-.043-4.145c-.201-13.331-.201-13.331 4.423-19.407"/><path fill="#d1eff4" d="M401 245h1q.141 17.07.207 34.139c.021 5.285.049 10.57.095 15.855.044 5.11.067 10.219.078 15.328q.01 2.911.043 5.821c.194 18.052-2.363 32.3-15.111 46.107-12.451 11.751-26.673 14.945-43.187 14.812l-3.242-.013A2302 2302 0 0 1 333 377v-2l2.089-.028c18.993-.324 35.659-.996 50.161-14.784 10.628-11.335 14.839-24.147 14.955-39.58l.03-2.485q.047-4.042.081-8.084l.063-5.624q.082-7.383.153-14.766.077-7.542.161-15.083.161-14.782.307-29.566"/><path fill="#e9fefd" d="M332 6h1v32c9.062-.187 9.062-.187 11.875-.27 6.656-.066 11.34.811 16.488 5.356l1.949 2.289 1.989 2.273c4.132 5.719 3.976 10.921 3.926 17.742l.001 3.165c-.001 3.446-.017 6.893-.033 10.34l-.008 7.175c-.008 6.292-.028 12.583-.05 18.874-.02 6.422-.029 12.843-.039 19.265Q369.064 143.104 369 162h-1l-.011-3.836q-.056-17.941-.173-35.883c-.039-6.148-.072-12.296-.087-18.445a3308 3308 0 0 0-.097-17.818q-.022-3.39-.024-6.78a978 978 0 0 0-.062-9.534l.015-2.799c-.113-7.143-1.402-14.843-5.902-20.629-5.443-4.951-12.369-5.506-19.409-5.838-6.956-.34-6.956-.34-10.25-1.438-1.294-3.218-1.129-6.544-1.133-9.973l-.004-3.474.012-3.615-.012-3.627.004-3.471.004-3.176C331 9 331 9 332 6"/><path fill="#d5eef2" d="M358 204h1c.654 5.033-1.633 8.248-4.25 12.312q-1.253 2.014-2.5 4.032l-1.199 1.929c-1.553 2.552-2.891 5.174-4.168 7.872a104 104 0 0 1-2.016 3.992c-5.494 10.453-10.145 21.478-11.25 33.312-.839 3.468-2.051 5.062-4.617 7.551-2.798.465-4.974.61-7.762.523l-2.338-.013c-2.53-.02-5.058-.077-7.588-.135q-2.619-.033-5.238-.061c-5.359-.066-10.716-.184-16.074-.314l-2.564-.06A2146 2146 0 0 1 257 274v-1h72l4-17c5.09-14.923 11.69-28.661 20.031-42.041 2.006-3.234 3.686-6.372 4.969-9.959"/><path fill="#7bb8ce" d="M36 335h3l.586 2.484.789 3.266.773 3.234c.733 2.594 1.45 4.725 2.852 7.016l2 1 1.312 2.812c1.86 3.512 3.457 4.934 6.688 7.188l2.812 2c9.223 5.787 17.475 8.364 28.376 8.062q2.333-.051 4.667-.089l2.052-.055C94 372 94 372 99 373l1-27h-9c-3.062-.5-3.062-.5-5-1v-1h15v31c-20.763.444-36.722.603-52.75-14.25-5.695-6.065-12.053-14.518-12.375-23.062z"/><path fill="#e8fbfd" d="M368 238h1c.116 11.449.205 22.897.259 34.346.026 5.317.061 10.634.118 15.95.055 5.135.084 10.27.097 15.406q.015 2.932.055 5.864c.27 20.304.27 20.304-7.717 28.746C351.81 344.314 345.806 344 333 344v32h-1c-.827-6.477-1.154-12.787-1.125-19.312l-.012-2.667.004-2.572.004-2.302c.13-2.163.535-4.067 1.129-6.147l3.473-.332 4.589-.48 2.28-.213c7.772-.842 14.974-3.422 20.658-8.975 5.726-8.69 4.605-19.63 4.609-29.57q.023-2.838.05-5.675c.044-4.948.064-9.896.079-14.844.02-5.062.062-10.123.102-15.184.075-9.909.125-19.818.16-29.727"/><path fill="#2c6972" d="m198 150 4 1c-.812 2.438-.812 2.438-2 5l-3 1c-5.327 6.971-4.053 14.819-3 23l.199 2.277c.382 3.878 1.582 6.539 3.801 9.723l1-3h3v8h2l1-7h2c-.466 5.707-1.938 9.159-5 14-4.566-4.01-6.643-9.883-9.25-15.25l-1.719-3.395c-3.974-8.171-3.974-8.171-4.207-13.031 1.654-4.675 3.842-8.927 6.238-13.262l1.432-2.65A811 811 0 0 1 198 150"/><path fill="#d9edee" d="M134 229h2a27292 27292 0 0 1 19.218 38.229q4.454 8.879 8.922 17.75a8287 8287 0 0 1 8.598 17.117q1.643 3.274 3.293 6.543c1.536 3.043 3.061 6.09 4.584 9.138l1.4 2.755 1.245 2.507 1.098 2.184L185 327l-1 2c-3.816-5.296-6.492-10.973-9.25-16.875q-1.473-3.114-2.949-6.227l-1.451-3.063a644 644 0 0 0-5.412-11.085l-.931-1.861a593 593 0 0 0-5.722-11.022l-1.4-2.639q-1.362-2.56-2.737-5.112l-1.242-2.327-1.115-2.072C151 265 151 265 151 263l-3-1-.344-2.159c-.703-3.046-1.779-5.489-3.16-8.29l-1.494-3.069-1.564-3.17a2014 2014 0 0 1-3.067-6.261l-1.377-2.792C136 234 136 234 136 232c-2.86 2.516-4.415 5.339-6.188 8.688l-1.605 3.011L127 246l-1-2a129 129 0 0 1 3.938-7.625l1.169-2.141A889 889 0 0 1 134 229"/><path fill="#aee2e1" d="M298 89c2.901 2.901 3.555 3.965 4.688 7.688l.761 2.449L304 101h-2v-3h-2l.108 1.863c.97 17.678.738 35.178.054 52.849-.253 6.586-.452 13.174-.659 19.761q-.157 4.953-.319 9.906l-.108 3.299L299 188h-1z"/><path fill="#96e3df" d="m34 52 2 1-.219 1.66c-1.046 8.938-1.56 18.19-.211 27.11C36 85 36 85 35 88a102 102 0 0 0-.125 5.5l-.008 2.906C35 99 35 99 36 102a117 117 0 0 1-1 4c-.098 1.738-.145 3.48-.158 5.221l-.031 3.158-.022 3.402-.086 7.18q-.063 5.641-.104 11.282a1984 1984 0 0 1-.122 10.913l-.01 3.354c-.283 18.232-.283 18.232-6.155 24.24L26 176l-2-1 1.812-2.375c2.803-4.174 3.939-8.804 5.188-13.625l.529-1.882c.487-2.191.607-4.133.622-6.375l.026-2.553.012-2.776.026-2.943q.026-3.161.045-6.322.033-4.998.077-9.997c.07-8.274.129-16.548.189-24.823q.076-10.491.166-20.982.038-4.931.068-9.863l.051-6.027.012-2.782.026-2.545.015-2.21C33 55 33 55 34 52"/><path fill="#589ba1" d="m168 66 2 1-1 5h-2l-.34 1.754c-.723 2.462-1.763 4.083-3.222 6.184-2.054 3.157-3.041 5.2-2.438 9.062h-2c-1.52 2.944-2.83 5.925-4.062 9l-1.036 2.562C153 103 153 103 152.566 105.25L152 107l-3 1c-3.943 5.408-4.539 9.4-4 16h-2l-1-2-1.375 2.312A153 153 0 0 1 137 130l-2-1c10.534-21.265 21.583-42.197 33-63"/><path fill="#c0edec" d="M320 283h9c.342 3.583.672 7.166 1 10.75l.289 3.02.273 3.027.254 2.729c.273 5.158.217 10.311.184 15.474q-12.01.233-24.021.443-5.579.097-11.157.205-5.398.105-10.796.195-3.03.054-6.061.118c-7.723.123-15.283-.145-22.965-.961v-1l2.108-.031q9.927-.149 19.853-.308 5.101-.083 10.203-.158 5.89-.089 11.781-.187l3.626-.05c8.201-.141 16.22-.68 24.429-1.266v-30h-7z"/><path fill="#99e0de" d="m247.867 62.886 3.793.016 2.013.004q3.195.01 6.39.031l4.321.014q5.309.017 10.616.05l-1 4-1-2q-5.625.209-11.25.436l-3.223.12-3.106.126-2.856.111c-2.357.19-4.348.39-6.565 1.206-2.125 2.875-2.125 2.875-4 6l-2 3v3c-1.426 2.2-1.426 2.2-3.313 4.687-3.17 4.384-4.984 8.203-6.687 13.313-2.527 5.684-2.527 5.684-6 8l-1-2c1.168-2.73 1.168-2.73 2.972-6.188l.97-1.87a917 917 0 0 1 2.061-3.934 949 949 0 0 0 3.088-5.919c11.476-22.033 11.476-22.033 15.776-22.203"/><path fill="#8fdbdd" d="m200 3 10 1v1l-3.125-.062c-2.634.382-3.651.825-5.5 2.781-3.901 5.77-8.259 12.613-9.891 19.437C191 29 191 29 189.062 31.188c-2.067 2.819-2.463 4.109-3.062 7.437-.785 4.189-.785 4.189-2.875 6L181 46c-2.35 3.632-4.075 7.052-5.5 11.125-1.246 3.539-2.962 6.074-5.5 8.875l-2-1c9.596-18.693 19.195-37.383 28.957-55.99A451 451 0 0 0 200 3"/><path fill="#1b4951" d="M243 233c3.132 3.648 4.726 7.718 6.5 12.125l.943 2.298c1.642 4.066 3.066 8.08 4.182 12.327 1.181 4.366 2.987 6.319 6.375 9.25v2l1.688-.438L265 270l2.438-.625c2.562-.375 2.562-.375 4.703.129 3.772.654 7.381.353 11.171.058l2.245-.158A988 988 0 0 0 291 269l-2 4q-6.753.185-13.507.275-2.297.038-4.595.102c-2.202.061-4.402.089-6.605.111l-2.074.078c-1.941.002-1.941.002-5.219-.566-2.746-3.326-3.366-5.731-3-10l-2-1c-.422-1.863-.422-1.863-.75-4.312-.981-5.568-3.288-9.943-5.918-14.903-1.623-3.394-2.163-6.057-2.332-9.785"/><path fill="#6ab3d2" d="M292 263h2v5h34v4h-38z"/><path fill="#7cbecf" d="M32 237c2.664 2.664 2.304 4.025 2.414 7.754l.117 3.718.094 4.09.117 4.245c.348 13.578.323 27.159.221 40.74-.056 9.347.169 18.608.818 27.934.178 2.855.263 5.661.219 8.519-2-1-2-1-2.615-2.814-.646-3.669-.565-7.371-.59-11.085l-.03-2.721q-.046-4.447-.081-8.896l-.063-6.17q-.082-8.118-.153-16.236-.077-8.286-.161-16.57Q32.146 253.254 32 237"/><path fill="#184c58" d="M245 228h4l1 16h2l1 7h2v-7h2v22c-2.895-2.895-3.561-6.488-4.75-10.312-2.247-7.029-4.855-13.572-8.148-20.184C243 233 243 233 243 230h2z"/><path fill="#75b8bd" d="M208 84c1 3 1 3 .079 5.426l-1.474 2.886-1.634 3.235L203.188 99l-1.786 3.511A1793 1793 0 0 1 186 132h-1a99 99 0 0 1 0-5l1-1 .25-3.25c.906-4.532 2.55-5.55 5.75-8.75.668-1.98.668-1.98 1.125-4.125.861-3.812 1.087-4.533 3.875-6.875 1.969-2.954 3.352-5.499 4-9h2l1-4h2l.438-1.875C207 86 207 86 208 84"/><path fill="#dbeeef" d="M247 164h2c-1.316 4.217-2.917 8.081-4.898 12.027l-1.704 3.401-1.773 3.51-1.75 3.498c-4.698 9.348-4.698 9.348-7.277 13.677C230 203 230 203 229.812 206.25c1.462 4.614 3.786 8.148 6.461 12.156 1.873 2.813 3.446 5.471 4.727 8.594l-1 2a590 590 0 0 1-6-8.938l-1.734-2.517c-3.633-5.558-5.447-9.869-4.266-16.545 1.342-3.355 2.458-5.458 5-8 .781-1.805.781-1.805 1.5-3.875 1.009-2.816 2.072-5.488 3.5-8.125h2l.309-1.578c.922-3.23 2.325-6.133 3.753-9.172l1.661-3.547z"/><path fill="#9dd" d="M271 67h2c-1.349 4.373-3.055 8.306-5.16 12.367l-.928 1.796q-1.482 2.86-2.974 5.712l-2.038 3.921c-4.78 9.174-9.702 18.259-14.9 27.204h-1c-.74-4.738 1.233-7.24 3.762-11 1.566-2.529 2.343-5.176 3.238-8l2-1c.625-2.062.625-2.062 1-4h2l-.125-2.312C258 89 258 89 260 86h2v-3h2l.309-1.609c.894-3.093 2.29-5.776 3.753-8.641l1.661-3.266z"/><path fill="#94d1d7" d="M19 180v3a402 402 0 0 1-4.688 2l-2.636 1.125C9 187 9 187 4 187v28h7c3.238 1.172 3.238 1.172 6.312 2.75l3.114 1.547c2.639 1.746 3.523 2.772 4.574 5.703l-1.938-1.25a99 99 0 0 0-7.312-3.812l-2.078-.973C9.896 217.601 5.919 216.871 2 216v-30l11-3c3.688-1.688 3.688-1.688 6-3"/><path fill="#91ced6" d="M416 182c5.391 1.078 10.696 2.554 16 4v30l-13 3c-4.812 2.688-4.812 2.688-8 5v-3h2v-2a660 660 0 0 1 5.688-2l3.199-1.125C425 215 425 215 430 215v-28h-6c-2.581-.726-4.583-1.768-7-3z"/><path fill="#7bb3c8" d="M333 344h16l-1 3-2.117-.07-2.758-.055-2.742-.07C338 347 338 347 336 349c-1.234 7.902-1.106 16.023-1 24l17 1v1h-19z"/><path fill="#74b2c8" d="M86 344h15v31H76l-1-2c8.201-.844 15.855-1.629 24 0l1-27h-9c-3.062-.5-3.062-.5-5-1z"/><path fill="#d8eced" d="m195 153 2 1-.842 1.449a565 565 0 0 0-3.72 6.613l-1.327 2.28c-1.919 3.49-3.085 5.956-3.232 9.978 1.658 5.442 4.093 10.407 6.621 15.492l1.551 3.178q2.451 5.017 4.949 10.01l4-6 1 3c-1.438 2.688-1.438 2.688-3 5-2.442-.366-3.659-.567-5.217-2.547l-1.002-1.988-1.136-2.205-1.145-2.322-1.145-2.241a342 342 0 0 1-2.246-4.494 83 83 0 0 0-2.281-4.23c-2.818-5.003-3.88-9.252-2.828-14.973 1.198-3.214 2.774-6.105 4.5-9.062l1.301-2.334A430 430 0 0 1 195 153"/><path fill="#3f8087" d="M272 120c.961 2.882 1.106 4.699 1.062 7.688l-.027 2.449L273 132l-3-1c-4.683 4.23-4.606 8.606-4.922 14.551L265 148h-2l-1-2-4 2c1.535-5.235 3.857-9.789 6.438-14.562l1.197-2.249c2.028-3.79 4.11-7.527 6.365-11.189"/><path fill="#93d4d9" d="M62 146h1c.686 16.332 1.151 30.9-10.098 44.02-6.734 7.01-6.734 7.01-9.902 8.98l-3-1 1.934-1.461 2.504-1.914 2.496-1.898C49 191 49 191 50 189h2l.867-2.168L58 174h2z"/><path fill="#e0f7f8" d="M220 105h2c-1.632 5.877-4.545 10.899-7.5 16.188-4.592 8.295-9.076 16.633-13.377 25.084-2.906 5.619-2.906 5.619-5.123 6.728.593-3.887 1.763-6.768 3.688-10.188l1.648-2.949a258 258 0 0 1 4.476-7.363c3.519-5.759 6.289-11.87 9.117-17.988l1.118-2.414.995-2.172C218 108 218 108 220 105"/><path fill="#def5f5" d="m153 91 2 1a21479 21479 0 0 1-8.807 17.242l-2.995 5.864q-2.153 4.22-4.311 8.437l-1.345 2.639c-2.063 4.027-4.206 7.942-6.542 11.818-.688 2.312-.688 2.312-1 4h-2c1.802-6.108 4.141-11.321 7.266-16.859 1.99-3.605 3.84-7.266 5.672-10.953l1.014-2.04q1.526-3.073 3.048-6.148 1.965-3.97 3.938-7.938l1.714-3.464C152 92 152 92 153 91"/><path fill="#235a63" d="M192 184c2.615 2.366 4.264 4.942 6 8l1-3h3v8h2l1-7h2c-.466 5.707-1.938 9.159-5 14-3.245-2.716-4.859-6.274-6.688-10l-.97-1.906C192.907 189.206 192 187.268 192 184"/><path fill="#8fd2d8" d="M299 158h1l-.019 2.567c-.007 3.165.017 6.329.062 9.494q.02 2.048.002 4.096c-.088 11.42-.088 11.42 2.54 15.006 1.911 1.579 1.911 1.579 3.819 2.754C308 193 308 193 309 196c.768 6.789.334 11.726-3.516 17.441-2.368 2.487-4.42 3.471-7.843 3.754l-2.391-.07-2.422-.055L291 217v-1l1.793-.297c5.021-.95 8.582-1.858 12.207-5.703 2.356-4.038 2.736-8.421 2-13-1.703-3.224-2.947-5.383-6.116-7.24C299 188 299 188 298.546 184.906l.063-3.761.018-2.005c.022-2.11.072-4.218.123-6.328q.03-2.147.055-4.294c.044-3.507.113-7.012.195-10.518"/><path fill="#94d7da" d="M33 114h1c.077 6.331.129 12.662.165 18.994q.022 3.223.061 6.447C34.518 164.06 34.518 164.06 31 172c-2.687 2.75-2.687 2.75-5 4l-2-1 1.812-2.375c2.803-4.174 3.939-8.804 5.188-13.625l.525-1.884c.486-2.167.632-4.116.68-6.334l.061-2.486.05-2.655.063-2.741q.098-4.325.183-8.65l.131-5.871q.16-7.19.307-14.379"/><path fill="#174b56" d="M248 344c4.502 3.971 6.615 9.718 9.25 15l1.719 3.352 1.609 3.21 1.482 2.942C263 371 263 371 262 374c-2.422-.633-2.422-.633-5-2-.891-2.68-.891-2.68-1.25-5.875l-.391-3.18L255 360a86 86 0 0 0-1-4l-5-1v-8h-2z"/><path fill="#5b949a" d="M184 129c1.309 2.972.974 4.068-.216 7.16a209 209 0 0 1-1.862 3.688l-.992 1.979a592 592 0 0 1-2.098 4.127 654 654 0 0 0-3.187 6.314q-1.016 2.01-2.036 4.017l-.956 1.904c-1.566 3.032-3.031 5.589-5.653 7.811l-1-4h2c1.803-3.967 2.492-7.682 3-12l3 1 .551-1.758c2.115-6.573 4.845-12.344 8.449-18.242z"/><path fill="#6db4b8" d="m168 66 2 1-1 5h-2l-.34 1.754c-.723 2.462-1.763 4.083-3.222 6.184-2.054 3.157-3.041 5.2-2.438 9.062h-2l-.812 1.625L154 99l-2-3q3.173-6.17 6.354-12.335l2.162-4.199q1.55-3.013 3.105-6.025l.979-1.906c2.286-4.421 2.286-4.421 3.4-5.535"/><path fill="#dbf1f2" d="M167 166c1 3 1 3-.312 6.062-.914 5.23.749 6.938 3.597 11.208 2.32 3.694 3.807 7.576 5.41 11.621 1.835 4.371 4.038 8.529 6.266 12.711L183 210l-1 2a2815 2815 0 0 1-8.635-16.408 649 649 0 0 0-3.845-7.17q-1.106-2.085-2.208-4.172l-1.062-1.908c-2.339-4.501-2.432-7.451-1.25-12.342 1.062-2.438 1.062-2.438 2-4"/><path fill="#22535c" d="M231 312c4.806 1.602 5.734 5.776 7.934 10.135l.901 1.829a448 448 0 0 0 2.778 5.491l1.746 3.502 1.609 3.218c1.062 2.907 1.185 4.012.032 6.825h-2v-5l-3 1-.332-2.047-.48-2.703-.458-2.672c-.788-2.783-1.817-4.429-3.73-6.578h-1v-6h-2z"/><path fill="#0a4856" d="m290 265 1 4c-3.197 1.066-5.957 1.354-9.312 1.625l-3.364.289c-3.264.084-6.117-.37-9.324-.914a90 90 0 0 0-5 2c-2.812.125-2.812.125-5 0l2-4 28-1z"/><path fill="#96e3e1" d="M299 95h3l2 6h-2v-3h-2l.108 1.863c1.049 19.116.678 38.025-.108 57.137h-1z"/><path fill="#60868d" d="m195 346 3 2 2-1 .586 2.449.789 3.239.773 3.199c.771 2.817 1.707 5.43 2.852 8.113l-3 1-1-4h-2c-3.042-5.228-4.506-8.927-4-15"/><path fill="#80cbcc" d="M182 38h3c.25 2.312.25 2.312 0 5a124 124 0 0 1-4 3c-2.35 3.632-4.075 7.052-5.5 11.125-1.246 3.539-2.962 6.074-5.5 8.875l-2-1z"/><path fill="#5d9ca2" d="M214 120h3l-1 5h-2l-1.938 4.812-1.089 2.708A112 112 0 0 0 209 138h-2l-.348 1.734c-.714 2.481-1.725 4.33-3.09 6.516l-1.308 2.141L201 150h-2c1.445-3.797 3.157-7.358 5.039-10.957l1.758-3.369 1.828-3.486 1.852-3.545Q211.735 124.32 214 120"/><path fill="#79b2c6" d="M332 255c1 4 1 4-3 18h-40v-1h39l1-11c1.562-3.688 1.562-3.688 3-6"/><path fill="#9fe2e1" d="M245 63h30l-1 4-1-2q-5.625.21-11.25.438l-3.223.119-3.105.127-2.857.111c-3.168.253-5.723.784-8.565 2.205z"/><path fill="#164a55" d="M175 300h2l.332 2.484.48 3.266.458 3.234c.743 3.071 1.658 4.677 3.73 7.016l3-1 1 13c-5.569-5.569-10.191-14.244-11.52-22.055.02-2.445.02-2.445.52-5.945"/><path fill="#88c6d3" d="m408 224 3 1-1.75 1.812c-4.63 6.56-7.207 14.938-7.566 22.954l-.127 2.695-.119 2.789-.131 2.836q-.159 3.456-.307 6.914c-2.163-3.244-2.222-3.879-2.012-7.57l.143-2.719.181-2.836.147-2.766c.322-5.731.859-11.41 1.541-17.109l3-1a101 101 0 0 0 3-6z"/><path fill="#235a63" d="m136 228 2 1 1 3c2.062 1.188 2.062 1.188 4 2v2h2l-.25 3c-.028 4.656 1.987 8.046 4.25 12l1 2h-3a2742 2742 0 0 1-5.5-10.812l-1.59-3.104-1.504-2.979-1.396-2.745C136 231 136 231 136 228"/><path fill="#265962" d="M133 227c1 3 1 3 .104 5.36l-1.413 2.745-1.513 2.979-1.616 3.104-1.603 3.138Q124.992 248.17 123 252h-3q1.397-3.379 2.812-6.75l.792-1.922c1.472-3.49 3.137-6.316 5.396-9.328.188-3.25.188-3.25 0-6z"/><path fill="#d3e6e8" d="M243 233c3.033 3.558 4.7 7.588 6.438 11.875l.921 2.264c7.692 19.289 7.692 19.289 5.641 24.861-2-5.625-2-5.625-2-9l-2-1c-.422-1.863-.422-1.863-.75-4.312-.981-5.568-3.288-9.943-5.918-14.903-1.623-3.394-2.163-6.057-2.332-9.785"/><path fill="#144955" d="M233 203v9h2l2 4 3-4c1.125 5.625 1.125 5.625 0 9l2 1-1 3c-3.422-3.137-5.856-6.622-8.25-10.562l-1.102-1.749C229.937 209.9 229 208.333 229 205c3-2 3-2 4-2"/><path fill="#4e8a90" d="m225 148 3 1c-.477 5.826-2.193 9.887-5.062 14.938A593.985 593.985 0 0 1 219 171c-1.461-2.647-2-3.894-2-7l2.438-.688L222 162c.688-2.312.688-2.312 1-5l1.062-2.562C225 152 225 152 225 148"/><path fill="#499da7" d="M97 65h23v3H99v-2z"/><path fill="#69a9af" d="m193 108 3 2c-2.616 7.693-6.301 14.785-10 22h-1a99 99 0 0 1 0-5l1-1 .25-3.25c.901-4.504 2.535-5.615 5.75-8.75.812-3.312.812-3.312 1-6"/><path fill="#74adb4" d="M299 304h1l1 11h13v2h-27v-1h12z"/><path fill="#dbeff0" d="m228 153 1 2a102 102 0 0 1-3.25 6.688q-.948 1.817-1.891 3.636l-.952 1.837c-.886 1.796-1.666 3.642-2.442 5.487-1.327 3.037-2.772 5.574-4.653 8.29l-1.605 2.339L213 185l-1-2a91 91 0 0 1 3.148-6.504l1.006-1.935c1.067-2.045 2.144-4.084 3.221-6.123l2.156-4.139q1.027-1.965 2.055-3.928l.988-1.887c2.307-4.365 2.307-4.365 3.426-5.484"/><path fill="#ddeff0" d="M215 276c3.817 3.11 5.558 6.788 7.633 11.137 1.949 4.082 4.052 8.085 6.133 12.101 1.172 2.622 1.801 4.934 2.234 7.762-3.272-1.636-4.216-5.131-5.75-8.312l-2.141-4.372-1.072-2.202a399 399 0 0 0-2.896-5.774l-1.641-3.215-1.469-2.867C215 278 215 278 215 276"/><path fill="#488e94" d="M280 104h2l-1 13-3-3-4 6-2-1z"/><path fill="#377078" d="M216 171h2c-1.545 5.479-4.155 10.114-7 15h-2v-10l3 1 2-4h2z"/><path fill="#19535f" d="M278 193h1l-1 12-2-2-2 6h-1v-12l3-1z"/><path fill="#90d0d9" d="m393 201 2 1-1.875.75c-2.125 1.25-2.125 1.25-2.937 3-1.616 3.061-3.84 5.091-6.313 7.5l-2.758 2.703L379 218c0-3.979 1.446-6.106 4-9 3.229-2.809 6.58-5.429 10-8"/><path fill="#174e59" d="M240 183h1v13h-2l-1-4-1.375 2.938C235 198 235 198 233 199c.598-4.143 2.007-7.182 4.062-10.812l1.661-2.958z"/><path fill="#30666e" d="M287 163h1v25l-4-2 1-1c.212-2.941.377-5.867.5-8.812q.103-2.448.219-4.895l.092-2.202c.191-2.118.619-4.046 1.189-6.091"/><path fill="#6da5aa" d="M236 133h2c-1.41 4.87-3.533 9.164-5.879 13.633-1.013 2.139-1.647 4.058-2.121 6.367h-2c-.515-5.404.882-7.669 4-12 1.41-2.63 2.715-5.307 4-8"/><path fill="#154951" d="M257 299h1c.917 4.992.799 9.006 0 14 1.651 1.651 3.637 1.225 5.91 1.316l2.998.127 3.154.119A2532 2532 0 0 0 281 315v1h-25c0-12.375 0-12.375 1-17"/><path fill="#1c4d57" d="M258 283h21v1c-11.6 3.2-11.6 3.2-18 0l-2 9h-1z"/><path fill="#15515e" d="M272.152 269.508c4.066.52 7.704.38 11.785.055l2.072-.16c1.664-.127 3.328-.264 4.991-.403l-1 3h-26c1-2 1-2 2.625-2.687 2.375-.313 2.375-.313 5.527.195"/><path fill="#6fb1cc" d="m344.875 343.938 2.367.026L349 344l-1 3-2.117-.07-2.758-.055-2.742-.07C338 347 338 347 336 349c-.414 2.601-.414 2.601-.625 5.625l-.227 3.04-.148 2.334h-1v-15c3.959-.659 6.997-1.12 10.875-1.062"/><path fill="#e4f7f8" d="M183 212c5.185 4.407 7.942 11.694 10.812 17.75l.983 1.996c2.322 4.903 2.322 4.903 1.205 8.254a4967 4967 0 0 1-5.938-11.75l-1.708-3.367-1.631-3.242-1.508-2.984c-1.028-2.248-1.732-4.244-2.215-6.657"/><path fill="#33757c" d="M264 136h1v12h-2l-1-2-4 2c1.317-4.609 3.152-8.141 6-12"/><path fill="#e5fafa" d="m286 89 1 2c-.804 2.063-.804 2.063-2.09 4.57l-1.377 2.715-1.471 2.84-1.458 2.863A1404 1404 0 0 1 277 111h-2c1.314-5.352 3.249-9.654 6.062-14.375l1.104-1.902C284.82 90.18 284.82 90.18 286 89"/><path fill="#0e4755" d="M255 244h2v22c-2.744-2.744-2.864-5.268-3-9 .213-4.346.577-8.67 1-13"/><path fill="#87c0ce" d="M355 202h2c.866 2.828 1.418 5.007.239 7.808-1.155 1.915-2.383 3.742-3.677 5.567l-1.314 1.941A352 352 0 0 1 349 222l-2-2q1.433-2.44 2.875-4.875l1.617-2.742C353 210 353 210 355 208c.125-3.125.125-3.125 0-6"/><path fill="#89c9cc" d="M219 63c.918 2.497 1.124 3.661.196 6.198l-1.286 2.349-1.377 2.558-1.471 2.645-1.458 2.691A772 772 0 0 1 210 86c-.878-3.097-.994-4.906 0-8h2l.688-2.438c1.648-4.475 3.917-8.449 6.312-12.562"/><path fill="#8bcecf" d="M253 99h2c-.538 4.986-2.117 8.518-4.562 12.875l-1.942 3.492L247 118h-1c-.74-4.737 1.234-7.233 3.754-10.996 1.58-2.541 2.455-5.129 3.246-8.004"/><path fill="#86d1d1" d="m232 87 1 2c-4.286 12.857-4.286 12.857-9 16l-1-2a125 125 0 0 1 3.875-7.562l1.145-2.116c2.806-5.148 2.806-5.148 3.98-6.322"/><path fill="#1c4f5a" d="m187 330 6 2-.062 3.188c.051 3.139.327 5.781 1.062 8.812-2.333-2.139-3.787-4.167-5.188-7l-1.042-2.062C187 333 187 333 187 330"/><path fill="#7ab9bd" d="M245 116c.715 1.547.715 1.547 1 4a77 77 0 0 1-3.438 7.25l-1.025 1.969A508 508 0 0 1 239 134c-1.126-3.819-.693-5.359 1-9l1.5-3.688C243 118 243 118 245 116"/><path fill="#185660" d="M247 169h2v11h-2l-1-2-2 1c.75-6.625.75-6.625 3-10"/><path fill="#407c83" d="m198 150 4 1c-.812 2.438-.812 2.438-2 5l-3 1c-1.168 1.848-1.168 1.848-2.188 4.062l-1.042 2.223L193 165h-2c1.366-3.542 2.909-6.926 4.625-10.312l1.352-2.676z"/><path fill="#1a4f5a" d="M265 380h3c3 5.625 3 5.625 3 9l-6-1z"/></svg>